<?xml version="1.0" encoding="UTF-8" standalone="no"?>
<svg
   width="1023.9999"
   height="1024"
   viewBox="0 0 1023.9999 1024"
   version="1.1"
   id="svg1"
   sodipodi:docname="GPS-pen-logo.svg"
   inkscape:version="1.3.2 (091e20e, 2023-11-25)"
   xmlns:inkscape="http://www.inkscape.org/namespaces/inkscape"
   xmlns:sodipodi="http://sodipodi.sourceforge.net/DTD/sodipodi-0.dtd"
   xmlns="http://www.w3.org/2000/svg"
   xmlns:svg="http://www.w3.org/2000/svg">
  <sodipodi:namedview
     id="namedview1"
     pagecolor="#ffffff"
     bordercolor="#000000"
     borderopacity="0.25"
     inkscape:showpageshadow="2"
     inkscape:pageopacity="0.0"
     inkscape:pagecheckerboard="0"
     inkscape:deskcolor="#d1d1d1"
     inkscape:zoom="0.5055007"
     inkscape:cx="454.0053"
     inkscape:cy="548.96066"
     inkscape:window-width="1920"
     inkscape:window-height="1088"
     inkscape:window-x="0"
     inkscape:window-y="43"
     inkscape:window-maximized="1"
     inkscape:current-layer="svg1" />
  <defs
     id="defs1">
    <style
       type="text/css"
       id="style1">
      .gps-path { stroke: #ffffff; stroke-width: 2; fill: none; stroke-linecap: round; stroke-linejoin: round; }
      .gps-point { fill: #ffffff; }
    </style>
  </defs>
  <!-- GPS Path -->
  <!-- Last GPS Point -->
  <!-- Metadata for preview systems -->
  <metadata
     id="metadata1">
    <title
       id="title1">GPS Drawing</title>
    <description>GPS movement visualization with 69 points</description>
  </metadata>
  <path
     style="fill:#4d4d4d;stroke-width:0.994016;stroke-linecap:round;paint-order:markers fill stroke"
     d="m -47.6771,-326.36765 20.535529,-40.10845"
     id="path2" />
  <path
     style="fill:#4d4d4d;stroke-width:0.994016;stroke-linecap:round;paint-order:markers fill stroke"
     d="m 17.138168,-425.83662 -45.884077,37.22065"
     id="path3" />
  <path
     style="fill:#4d4d4d;stroke-width:0.994016;stroke-linecap:round;paint-order:markers fill stroke"
     d="M 17.459028,-421.66534 -83.935143,-483.27192"
     id="path4" />
  <path
     style="fill:#4d4d4d;stroke-width:0.994016;stroke-linecap:round;paint-order:markers fill stroke"
     d="M 1.4156481,-337.91888 12.966888,-360.37962"
     id="path5" />
  <path
     style="fill:#4d4d4d;stroke-width:0.994016;stroke-linecap:round;paint-order:markers fill stroke"
     d="m 24.518118,-336.31454 10.9095,-24.06508"
     id="path6" />
  <path
     style="fill:none;stroke:#000000;stroke-width:2;stroke-linecap:round;stroke-dasharray:none;stroke-opacity:1;paint-order:markers fill stroke"
     d="m -165.11466,-325.08418 18.61032,-27.27375 -7.70082,-11.55123 4.81301,-11.55124 22.46074,-15.08078 -17.64772,-11.8721 -22.46074,17.64772 -3.20867,-20.8564 44.92147,-16.04338 4.49214,15.72252"
     id="path7" />
  <path
     style="fill:none;stroke:#000000;stroke-width:2;stroke-linecap:round;stroke-dasharray:none;stroke-opacity:1;paint-order:markers fill stroke"
     d="m -80.084727,-312.57034 -8.9843,-20.53552 4.81302,-20.8564 -4.17128,-8.9843 4.49214,-12.51383 10.58864,-4.17128 8.66342,-9.30516 -2.24607,-8.66343 -4.81302,-1.92521 -3.52954,-0.32086 -1.60434,-4.17128 v -4.49215 l 2.56694,-0.64174 9.9469,2.56695 6.738222,-2.24608 3.85041,-5.13388"
     id="path8" />
  <path
     style="fill:none;stroke:#000000;stroke-width:2;stroke-linecap:round;stroke-dasharray:none;stroke-opacity:1;paint-order:markers fill stroke"
     d="m -105.60874,-426.12065 12.626581,-19.68262 1.48548,-12.99795 -5.94192,-17.4544 1.48548,-8.91289 6.68467,-5.94192 0.74274,-9.28426 -5.94193,-5.57055 -7.056031,-0.74274 -3.7137,-3.7137 -8.91289,-2.5996 -2.97096,-5.57055 3.34233,-5.94192 5.94192,-5.57056 8.912891,-0.74274 9.28426,4.08508 2.22822,8.17014 -1.85685,8.91289 -4.82782,5.94192 -5.19918,3.34233 -17.083031,2.22822 -6.68466,5.19919 -3.34234,10.02699"
     id="path9" />
  <path
     style="fill:none;stroke:#000000;stroke-width:2;stroke-linecap:round;stroke-dasharray:none;stroke-opacity:1;paint-order:markers fill stroke"
     d="m -35.419771,-314.70958 15.597549,-21.91084 -11.512479,-21.53947 1.85685,-14.48344 6.68467,-5.19918 3.342329,-5.94193 -2.599589,-5.94192"
     id="path10" />
  <path
     style="fill:none;stroke:#000000;stroke-width:2;stroke-linecap:round;stroke-dasharray:none;stroke-opacity:1;paint-order:markers fill stroke"
     d="m -119.34944,-228.55169 -6.3133,-17.82577 v -7.05603 l 2.97097,-8.54151 2.59959,-5.19919 0.37137,-6.31329 -4.08507,-6.68467 -2.5996,-7.05603 2.97097,-7.79877 4.82781,-3.34234 6.31329,-2.97096 8.54152,-2.22822 5.570551,-3.34233 1.11411,-10.027 -6.313291,-4.08507 -13.7407,0.37137 -5.94192,5.19918 -6.3133,3.71371 -7.4274,-1.85685 -4.45644,-8.17015 1.85685,-4.82781"
     id="path11" />
  <path
     style="fill:none;stroke:#000000;stroke-width:2;stroke-linecap:round;stroke-dasharray:none;stroke-opacity:1;paint-order:markers fill stroke"
     d="m -5.7101519,-411.63721 -7.0560401,-17.82577 0.37137,-10.02699 6.3133001,-8.17015 1.48548,-11.1411 -6.3133001,-3.71371"
     id="path12" />
  <rect
     style="fill:#000000;fill-opacity:1;stroke:#000000;stroke-width:2.5708;stroke-linecap:round;stroke-dasharray:none;stroke-opacity:1;paint-order:markers fill stroke"
     id="rect13"
     width="163.60516"
     height="92.64312"
     x="-19.08503"
     y="-367.4238" />
  <path
     style="fill:none;stroke:#ffffff;stroke-width:0.6;stroke-linecap:round;stroke-linejoin:miter;stroke-dasharray:none;stroke-opacity:1;paint-order:normal"
     d="m -96.485295,-471.38879 5.57055,-14.85481 -0.37137,-13.36933 -15.968915,-11.1411 0.74274,-8.54152 5.19919,-4.08507"
     id="path13" />
  <circle
     style="fill:#ffffff;fill-opacity:1;stroke:#ffffff;stroke-width:0.6;stroke-linecap:round;stroke-linejoin:miter;stroke-dasharray:none;stroke-opacity:1;paint-order:normal"
     id="path14"
     cx="38.401894"
     cy="-351.23727"
     r="0.67801565" />
  <circle
     style="fill:#ffffff;fill-opacity:1;stroke:#ffffff;stroke-width:0.6;stroke-linecap:round;stroke-linejoin:miter;stroke-dasharray:none;stroke-opacity:1;paint-order:normal"
     id="path14-7"
     cx="86.980659"
     cy="-347.20309"
     r="0.67801565" />
  <path
     style="fill:none;fill-opacity:1;stroke:#ffffff;stroke-width:0.6;stroke-linecap:round;stroke-linejoin:miter;stroke-dasharray:none;stroke-opacity:1;paint-order:normal"
     d="m 27.729068,-294.91468 -6.99235,-3.98533 -0.70262,-3.39386 1.25852,-2.33541 0.35939,-1.67717 -0.1198,-1.91676 -1.84399,-2.06992 0.0334,-1.95998 1.09185,-1.72039 1.55737,-2.15636 2.15635,-0.47919 h 2.63555 l 2.9851,0.98326 2.64539,-0.26447 2.39595,-2.15636 0.95839,-1.55737 0.59898,-2.15635 -1.00541,-1.65365 -0.31236,-1.70069 -1.19798,-1.43757 v -1.79696 l 0.59899,-2.39596 0.71879,-1.79696 0.58165,-1.93309 -0.47919,-0.95838 0.37673,-2.49943 0.71878,-2.27615 -0.25641,-1.40341 0.49983,-1.31857 0.29266,-1.98349 -1.23348,-1.87474 -0.0216,-2.23552 2.06454,-1.70952"
     id="path15"
     sodipodi:nodetypes="ccccccccccccccccccccccccccccccccc" />
  <path
     style="fill:none;fill-opacity:1;stroke:#ffffff;stroke-width:0.6;stroke-linecap:round;stroke-linejoin:miter;stroke-dasharray:none;stroke-opacity:1;paint-order:normal"
     d="m 82.514168,-292.82209 1.57675,-3.31025 2.46449,-0.92969 0.80953,-1.79748 -0.9827,-2.23204 -0.69752,-1.73189 1.43234,-2.33726 c 0.64051,0.15055 2.71224,-0.45669 2.73095,-0.52496 l 1.6904,-1.76862 0.96759,-2.9623 -1.60384,-2.76588 -1.80836,-1.02594 -2.57788,-0.89766 -2.30773,-0.63299 -1.96174,-2.93145 -0.69903,-1.98057 v -1.39806 -1.86407 l 0.93204,-2.21358 0.81553,-2.09708 1.51455,-1.39806 1.51456,-2.21358 1.74757,-1.98058 1.04854,-4.54367 v -2.09708 l -0.69903,-3.37863 -1.16504,-1.51456 -0.21511,-1.33437"
     id="path16"
     sodipodi:nodetypes="cccccccccccccccccccccccccccc" />
  <path
     style="fill:none;fill-opacity:1;stroke:#ffffff;stroke-width:0.6;stroke-linecap:round;stroke-linejoin:miter;stroke-dasharray:none;stroke-opacity:1;paint-order:normal"
     d="m -7.8126919,-294.63496 1.99932,-5.29232 1.6465,-1.88172 2.23453,-2.23453 2.82257,-1.52889 1.88171,-2.58736 0.47043,-3.17539 v -3.293 l -1.41128,-2.35214 -1.41129,-1.6465 -2.82257,-1.88171 -2.23453,-1.17607 -0.94086,-1.5289 -1.41128,-2.35214 -0.11761,-1.88171 -0.11761,-2.35214 v -1.99932 l 0.47043,-2.58736 1.6465,-2.46975 1.76411,-1.52889 2.35214,-0.58804 2.58735,-1.41128 1.6465,-2.58736 v -1.88171 -1.76411 l 1.29368,-0.94085 0.47043,-1.52889 0.70564,-0.94086 v -1.6465 l 0.58804,-1.17607"
     id="path17" />
  <path
     style="fill:none;fill-opacity:1;stroke:#ffffff;stroke-width:0.6;stroke-linecap:round;stroke-linejoin:miter;stroke-dasharray:none;stroke-opacity:1;paint-order:normal"
     d="m 56.395598,-289.83379 -2.0192,-6.59605 -0.13462,-2.69227 v -1.88459 l 0.67307,-1.61536 0.80768,-1.61536 0.94229,-1.0769 1.74998,-1.74998 1.88458,-1.21152 2.0192,-1.34613 0.40384,-2.82688 0.13462,-2.69226 -0.26923,-2.69227 -1.48075,-1.61536 -2.55765,-1.07691 h -2.0192 l -1.88459,0.40384 -1.61536,1.21152 -0.40384,1.74998 v 1.88458 l 0.13462,2.42304 2.0192,1.88459 2.42304,0.94229 h 1.88458 l 4.30763,-0.53845 2.0192,-1.21152 1.07691,-1.07691 2.0192,-2.15381 0.40384,-1.61536 0.53845,-3.23072 -1.34613,-2.96149 -2.69227,-2.15382 -0.26923,-2.15381 0.9423,-2.69227 1.34613,-1.88458 1.74997,-1.48075 0.67307,-3.36533 -0.53845,-1.61536 -2.15382,-2.42304 0.9423,-1.88459 0.26922,-1.61536 v -1.48074 l -1.61536,-1.07691"
     id="path19" />
  <g
     id="g21"
     transform="translate(-120.83492,-1082.3318)">
    <rect
       style="fill:#000000;fill-opacity:1;stroke:none;stroke-width:10.0548;stroke-linecap:round;stroke-linejoin:miter;stroke-dasharray:none;stroke-opacity:1;paint-order:normal"
       id="rect19"
       width="1022.1079"
       height="1020.5536"
       x="124.74548"
       y="1081.9128"
       transform="matrix(0.99999431,0.00337361,-0.00185965,0.99999827,0,0)" />
    <g
       id="g20"
       transform="matrix(12.340156,0,0,12.340156,-2355.1396,-7791.755)">
      <circle
         style="fill:#ffffff;fill-opacity:1;stroke:#ffffff;stroke-width:0.90321;stroke-linecap:round;stroke-linejoin:miter;stroke-dasharray:none;stroke-opacity:1;paint-order:normal"
         id="path14-7-1"
         cx="247.72136"
         cy="735.84296"
         r="1.0206503" />
      <path
         style="fill:none;fill-opacity:1;stroke:#ffffff;stroke-width:0.6;stroke-linecap:round;stroke-linejoin:miter;stroke-dasharray:none;stroke-opacity:1;paint-order:normal"
         d="m 233.50937,786.5559 -3.0961,-3.76917 -0.53845,-2.69227 -0.26923,-2.55765 0.13461,-2.0192 0.67307,-1.34613 1.21152,-1.21152 3.23072,-1.61536 h 2.0192 l 2.28842,-0.40384 3.09611,-1.88459 1.48075,-2.15381 0.94229,-2.28843 0.13461,-1.74997 0.67307,-1.48075 3.36533,-2.0192 h 1.61536 l 1.28998,-2.60891 2.07314,-3.36533 0.79788,-1.87968 -0.90307,-1.68401 -0.8322,-1.64968 -2.31294,-0.86162 -0.51663,-2.35439 -2.28842,-0.9423 -0.9423,-2.0192 v -1.88458 l -0.13461,-2.0192 0.67307,-1.61536"
         id="path18"
         sodipodi:nodetypes="ccccccccccccccccccccccccccccc" />
    </g>
  </g>
</svg>
